# xmcd
#
# Track frame offsets:
#	150
#	13383
#	23358
#	39788
#	51700
#	65663
#	76108
#	90330
#	104013
#	118445
#
# Disc length: 1801 seconds
#
# Revision: 1
# Processed by: cddbd v1.5.2PL0 Copyright (c) Steve Scherf et al.
# Submitted via: audiograbber 1.83.01
#
DISCID=7f07070a
DTITLE=Billy Burnette - Soldier Of Love
DYEAR=1986
DGENRE=Country
TTITLE0=Soldier Of Love
TTITLE1=You Leave It Up To Me
TTITLE2=We'll Take It Day By Day
TTITLE3=Let's Take A Drive
TTITLE4=Slave To Your Love
TTITLE5=I've Just Seen A Face
TTITLE6=What A Perfect Way
TTITLE7=Blonde Ambition
TTITLE8=Looks Like It's Gonna Rain Today
TTITLE9=Little Bit Of Them In Me
EXTD=
EXTT0=
EXTT1=
EXTT2=
EXTT3=
EXTT4=
EXTT5=
EXTT6=
EXTT7=
EXTT8=
EXTT9=
PLAYORDER=
